<svg width="24" height="24" viewBox="0 0 24 24" fill="none" xmlns="http://www.w3.org/2000/svg">
<path d="M4.44892 2C3.09719 2 2 3.10509 2 4.47018H3.5C3.5 3.92289 3.9362 3.5 4.44892 3.5V2ZM7.71449 2H4.44892V3.5H7.71449V2ZM10.1634 4.47018C10.1634 3.10509 9.06622 2 7.71449 2V3.5C8.2272 3.5 8.6634 3.92288 8.6634 4.47018H10.1634ZM10.1634 7.7641V4.47018H8.6634V7.7641H10.1634ZM7.71449 10.2343C9.06619 10.2343 10.1634 9.12819 10.1634 7.7641H8.6634C8.6634 8.31076 8.22681 8.7343 7.71449 8.7343V10.2343ZM4.44892 10.2343H7.71449V8.7343H4.44892V10.2343ZM2 7.7641C2 9.12819 3.09722 10.2343 4.44892 10.2343V8.7343C3.93659 8.7343 3.5 8.31076 3.5 7.7641H2ZM2 4.47018V7.7641H3.5V4.47018H2ZM2 4.47018C2 3.10547 3.09681 2 4.44892 2V0.5C2.25532 0.5 0.5 2.29016 0.5 4.47018H2ZM2 7.7641V4.47018H0.5V7.7641H2ZM4.44892 10.2343C3.09682 10.2343 2 9.1278 2 7.7641H0.5C0.5 9.94265 2.25489 11.7343 4.44892 11.7343V10.2343ZM7.71449 10.2343H4.44892V11.7343H7.71449V10.2343ZM10.1634 7.7641C10.1634 9.1278 9.06659 10.2343 7.71449 10.2343V11.7343C9.90853 11.7343 11.6634 9.94264 11.6634 7.7641H10.1634ZM10.1634 4.47018V7.7641H11.6634V4.47018H10.1634ZM7.71449 2C9.0666 2 10.1634 3.10547 10.1634 4.47018H11.6634C11.6634 2.29017 9.90809 0.5 7.71449 0.5V2ZM4.44892 2H7.71449V0.5H4.44892V2ZM16.2855 2C14.9338 2 13.8366 3.10509 13.8366 4.47018H15.3366C15.3366 3.92289 15.7728 3.5 16.2855 3.5V2ZM19.5521 2H16.2855V3.5H19.5521V2ZM22 4.47018C22 3.10506 20.9028 2 19.5521 2V3.5C20.0634 3.5 20.5 3.92252 20.5 4.47018H22ZM22 7.7641V4.47018H20.5V7.7641H22ZM19.5521 10.2343C20.9027 10.2343 22 9.12822 22 7.7641H20.5C20.5 8.31113 20.063 8.7343 19.5521 8.7343V10.2343ZM16.2855 10.2343H19.5521V8.7343H16.2855V10.2343ZM13.8366 7.7641C13.8366 9.12819 14.9338 10.2343 16.2855 10.2343V8.7343C15.7732 8.7343 15.3366 8.31076 15.3366 7.7641H13.8366ZM13.8366 4.47018V7.7641H15.3366V4.47018H13.8366ZM13.8366 4.47018C13.8366 3.10547 14.9334 2 16.2855 2V0.5C14.0919 0.5 12.3366 2.29016 12.3366 4.47018H13.8366ZM13.8366 7.7641V4.47018H12.3366V7.7641H13.8366ZM16.2855 10.2343C14.9334 10.2343 13.8366 9.1278 13.8366 7.7641H12.3366C12.3366 9.94265 14.0915 11.7343 16.2855 11.7343V10.2343ZM19.5521 10.2343H16.2855V11.7343H19.5521V10.2343ZM22 7.7641C22 9.12781 20.9031 10.2343 19.5521 10.2343V11.7343C21.7455 11.7343 23.5 9.94224 23.5 7.7641H22ZM22 4.47018V7.7641H23.5V4.47018H22ZM19.5521 2C20.9032 2 22 3.10545 22 4.47018H23.5C23.5 2.29057 21.7451 0.5 19.5521 0.5V2ZM16.2855 2H19.5521V0.5H16.2855V2ZM3.5 16.2369C3.5 15.6882 3.93657 15.2657 4.44892 15.2657V13.7657C3.09721 13.7657 2 14.8708 2 16.2369H3.5ZM3.5 19.5298V16.2369H2V19.5298H3.5ZM4.44892 20.5C3.93621 20.5 3.5 20.0771 3.5 19.5298H2C2 20.8949 3.09719 22 4.44892 22V20.5ZM7.71449 20.5H4.44892V22H7.71449V20.5ZM8.6634 19.5298C8.6634 20.0771 8.2272 20.5 7.71449 20.5V22C9.06622 22 10.1634 20.8949 10.1634 19.5298H8.6634ZM8.6634 16.2369V19.5298H10.1634V16.2369H8.6634ZM7.71449 15.2657C8.22683 15.2657 8.6634 15.6882 8.6634 16.2369H10.1634C10.1634 14.8708 9.0662 13.7657 7.71449 13.7657V15.2657ZM4.44892 15.2657H7.71449V13.7657H4.44892V15.2657ZM4.44892 12.2657C2.25491 12.2657 0.5 14.0563 0.5 16.2369H2C2 14.8712 3.09682 13.7657 4.44892 13.7657V12.2657ZM7.71449 12.2657H4.44892V13.7657H7.71449V12.2657ZM11.6634 16.2369C11.6634 14.0563 9.90851 12.2657 7.71449 12.2657V13.7657C9.06659 13.7657 10.1634 14.8712 10.1634 16.2369H11.6634ZM11.6634 19.5298V16.2369H10.1634V19.5298H11.6634ZM7.71449 23.5C9.9081 23.5 11.6634 21.7098 11.6634 19.5298H10.1634C10.1634 20.8945 9.0666 22 7.71449 22V23.5ZM4.44892 23.5H7.71449V22H4.44892V23.5ZM0.5 19.5298C0.5 21.7098 2.25532 23.5 4.44892 23.5V22C3.09681 22 2 20.8945 2 19.5298H0.5ZM0.5 16.2369V19.5298H2V16.2369H0.5ZM16.2855 13.7657C14.9338 13.7657 13.8366 14.8708 13.8366 16.2369H15.3366C15.3366 15.6882 15.7732 15.2657 16.2855 15.2657V13.7657ZM19.5521 13.7657H16.2855V15.2657H19.5521V13.7657ZM22 16.2369C22 14.8707 20.9027 13.7657 19.5521 13.7657V15.2657C20.063 15.2657 20.5 15.6878 20.5 16.2369H22ZM22 19.5298V16.2369H20.5V19.5298H22ZM19.5521 22C20.9028 22 22 20.8949 22 19.5298H20.5C20.5 20.0775 20.0634 20.5 19.5521 20.5V22ZM16.2855 22H19.5521V20.5H16.2855V22ZM13.8366 19.5298C13.8366 20.8949 14.9338 22 16.2855 22V20.5C15.7728 20.5 15.3366 20.0771 15.3366 19.5298H13.8366ZM13.8366 16.2369V19.5298H15.3366V16.2369H13.8366ZM13.8366 16.2369C13.8366 14.8712 14.9334 13.7657 16.2855 13.7657V12.2657C14.0915 12.2657 12.3366 14.0563 12.3366 16.2369H13.8366ZM13.8366 19.5298V16.2369H12.3366V19.5298H13.8366ZM16.2855 22C14.9334 22 13.8366 20.8945 13.8366 19.5298H12.3366C12.3366 21.7098 14.0919 23.5 16.2855 23.5V22ZM19.5521 22H16.2855V23.5H19.5521V22ZM22 19.5298C22 20.8946 20.9032 22 19.5521 22V23.5C21.7451 23.5 23.5 21.7094 23.5 19.5298H22ZM22 16.2369V19.5298H23.5V16.2369H22ZM19.5521 13.7657C20.9031 13.7657 22 14.8711 22 16.2369H23.5C23.5 14.0567 21.7455 12.2657 19.5521 12.2657V13.7657ZM16.2855 13.7657H19.5521V12.2657H16.2855V13.7657Z" fill="white"/>
</svg>
