<svg width="24" height="26" viewBox="0 0 24 26" fill="none" xmlns="http://www.w3.org/2000/svg">
<path fill-rule="evenodd" clip-rule="evenodd" d="M6.92852 25H17.0826C20.8124 25 23.6738 23.6421 22.8611 18.1771L21.9147 10.7706C21.4136 8.04364 19.688 7 18.1737 7H5.79286C4.25639 7 2.63085 8.1222 2.05188 10.7706L1.1055 18.1771C0.415211 23.0249 3.19868 25 6.92852 25Z" stroke="#E17574" stroke-width="1.5" stroke-linecap="round" stroke-linejoin="round"/>
<path d="M7 6C7 3.23861 9.23384 1.00004 11.9894 1.00004V1.00004C13.3163 0.994409 14.5908 1.5187 15.5311 2.45699C16.4714 3.39527 17 4.67025 17 6V6" stroke="#E17574" stroke-width="1.5" stroke-linecap="round" stroke-linejoin="round"/>
<path d="M8.47712 11.5H8.52289" stroke="#E17574" stroke-width="1.5" stroke-linecap="round" stroke-linejoin="round"/>
<path d="M15.4771 11.5H15.5229" stroke="#E17574" stroke-width="1.5" stroke-linecap="round" stroke-linejoin="round"/>
</svg>
