<svg width="24" height="23" viewBox="0 0 24 23" fill="none" xmlns="http://www.w3.org/2000/svg">
<path d="M16.8242 10.2321C19.0094 10.2321 20.7806 8.51006 20.7806 6.38556C20.7806 4.26223 19.0094 2.53906 16.8242 2.53906" stroke="#FACA00" stroke-width="1.5" stroke-linecap="round" stroke-linejoin="round"/>
<path d="M18.6436 14.4121C19.2964 14.4553 19.9444 14.5463 20.584 14.6839C21.4708 14.8554 22.5388 15.2089 22.918 15.9824C23.1604 16.4783 23.1604 17.0558 22.918 17.5516C22.54 18.3251 21.4708 18.6786 20.584 18.8559" stroke="#FACA00" stroke-width="1.5" stroke-linecap="round" stroke-linejoin="round"/>
<path fill-rule="evenodd" clip-rule="evenodd" d="M9.10959 15.2402C13.5376 15.2402 17.32 15.8924 17.32 18.4976C17.32 21.1039 13.5616 21.7782 9.10959 21.7782C4.68159 21.7782 0.900391 21.1272 0.900391 18.5209C0.900391 15.9146 4.65759 15.2402 9.10959 15.2402Z" stroke="#FACA00" stroke-width="1.5" stroke-linecap="round" stroke-linejoin="round"/>
<path fill-rule="evenodd" clip-rule="evenodd" d="M9.10943 11.5215C6.18863 11.5215 3.84863 9.24536 3.84863 6.40568C3.84863 3.56718 6.18863 1.29102 9.10943 1.29102C12.0302 1.29102 14.3714 3.56718 14.3714 6.40568C14.3714 9.24536 12.0302 11.5215 9.10943 11.5215Z" stroke="#FACA00" stroke-width="1.5" stroke-linecap="round" stroke-linejoin="round"/>
</svg>
